<svg width="55" height="53" viewBox="0 0 55 53" fill="none" xmlns="http://www.w3.org/2000/svg">
<path d="M46.4062 23.1875V13.25" stroke="#6B4BC5" stroke-width="2" stroke-linecap="round" stroke-linejoin="round"/>
<path d="M51.5625 18.2188H41.25" stroke="#6B4BC5" stroke-width="2" stroke-linecap="round" stroke-linejoin="round"/>
<path d="M36.0938 4.96875V11.5938" stroke="#6B4BC5" stroke-width="2" stroke-linecap="round" stroke-linejoin="round"/>
<path d="M39.5312 8.28125H32.6562" stroke="#6B4BC5" stroke-width="2" stroke-linecap="round" stroke-linejoin="round"/>
<path d="M47.6023 30.9652C44.1942 31.7185 40.6434 31.6253 37.2829 30.6943C33.9225 29.7632 30.8625 28.0249 28.39 25.6424C25.9175 23.2598 24.1136 20.3111 23.1474 17.0728C22.1813 13.8345 22.0845 10.4128 22.8663 7.12869L22.866 7.12863C19.278 7.92622 15.9769 9.63481 13.3055 12.077C10.6342 14.5192 8.68989 17.6059 7.67459 21.0168C6.6593 24.4276 6.61 28.0381 7.5318 31.4735C8.4536 34.9089 10.3129 38.0439 12.9167 40.553C15.5204 43.0621 18.7737 44.8538 22.3387 45.7421C25.9038 46.6304 29.6505 46.5829 33.1901 45.6045C36.7296 44.6261 39.9329 42.7526 42.4672 40.1784C45.0016 37.6041 46.7747 34.4231 47.6023 30.9655L47.6023 30.9652Z" stroke="#6B4BC5" stroke-width="3" stroke-linecap="round" stroke-linejoin="round"/>
</svg>
